<svg class="svg___burger" xmlns="http://www.w3.org/2000/svg" viewBox="0 0 900 900">
	<g class="svg___burger_dashes">
		<path class="svg___burger_dash_bottom menu_icon_dash" d="M145 609l609 0c74,0 74,111 0,111l-609 0c-74,0 -74,-111 0,-111z"></path>
		<path class="svg___burger_dash_middle menu_icon_dash" d="M146 394c203,0 406,0 609,0 74,0 74,111 0,111 -203,0 -406,0 -609,0 -74,0 -74,-111 0,-111z"></path>
		<path class="svg___burger_dash_top menu_icon_dash" d="M146 179l609 0c74,0 74,111 0,111l-609 0c-74,0 -74,-111 0,-111z"></path>
	</g>
</svg>