<?xml version="1.0" encoding="utf-8"?>
<svg version="1.1" id="Слой_1" xmlns="http://www.w3.org/2000/svg" xmlns:xlink="http://www.w3.org/1999/xlink" x="0px" y="0px"
	 viewBox="0 0 940 940" style="enable-background:new 0 0 940 940;" xml:space="preserve">
<path d="M10,391c3-8.6,4.9-17.7,9.2-25.6c12.7-23.1,32.6-36,59.1-36.3c46.7-0.5,93.3,0,140-0.2c30.3-0.1,52,13.4,66.8,40.4
	c13.6-5.3,27.7-10.3,41.4-16.2c17.3-7.4,34.7-14.6,51.2-23.6c24.9-13.6,49.4-28,73.4-43.2c29-18.4,55.7-39.8,81.2-62.7
	c35.2-31.7,66.9-66.6,92.2-106.8c15.5-24.5,27.9-50.5,35-78.7c1.4-5.7,2.4-11.6,3.3-17.5c1.8-11.4,8.4-17.9,19.7-19.9
	c0.2,0,0.3-0.5,0.5-0.8c3,0,6,0,9,0c3.4,0.7,6.9,1.4,10.3,2c23.4,3.6,43.8,13.5,60.7,30c22.3,21.8,32.5,49.3,34.8,79.9
	c1.3,17.3,0.3,34.5-2.7,51.7c-4.4,24.9-11.3,49.1-20.3,72.6c-11.4,29.9-25.1,58.8-40.5,86.9c-1,1.8-1.7,3.6-2.8,5.9
	c2.8,0,4.6,0,6.4,0c37,0,74,0,111,0c6.1,0,12.3,0.2,18.4,1c16.3,2.2,29.6,10.1,40.2,22.5c12.3,14.4,18.2,31.5,20.5,50.1
	c0.5,3.8,1.3,7.6,1.9,11.3c0,7.3,0,14.7,0,22c-0.3,0.7-0.9,1.3-1,2c-0.4,4.9-0.4,10-1.2,14.8c-4.4,25.5-12,49.7-28.2,70.5
	c-1.8,2.2-1.9,3.9-0.5,6.2c7.7,12.1,10,25.9,10.7,39.8c1.4,25.2-2.5,49.8-11,73.6c-8.1,22.6-18.8,43.7-37.7,59.6
	c-1.5,1.3-2,4.3-2.1,6.5c-0.6,10.5,0.1,21.2-1.6,31.6c-4,25-11.8,48.9-24.8,70.9c-9,15.2-20.2,28.4-36,36.9c-3.7,2-5.9,3.8-7,8.3
	c-3.7,14.4-10.4,27.4-20.5,38.5c-23.3,25.7-53.4,37.3-86.9,41.9c-5.1,0.7-10.2,1.3-15.4,2c-10,0-20,0-30,0c-0.5-0.3-1-0.9-1.5-0.9
	c-18.9-1.1-37.8-1.6-56.6-3.2c-15.5-1.4-30.9-3.5-46.1-6.4c-30.4-5.9-58.6-18.1-85.5-33.1c-27.9-15.6-57-28.3-88.2-35.1
	c-22.4-4.9-45.1-8-67.6-12.4c-4.3-0.8-5.3,0.5-6.8,3.8c-4.9,10.5-12.3,19.3-21.5,26.2c-13.1,9.9-28.2,14.1-44.5,14.2
	c-43.1,0.1-86.2,0-129.3,0c-5.6,0-11.3-0.2-16.9-0.9c-28.8-3.7-48-19.7-58.2-46.5c-1.9-4.9-2.8-10.3-4.1-15.4C10,683,10,537,10,391z
	 M291,416.2c0,1.9,0,3.2,0,4.6c0,124.8,0,249.7,0,374.5c0,0.7-0.3,1.5,0.1,2c1,1.3,2,3.4,3.3,3.6c8.2,1.6,16.5,2.9,24.9,4.1
	c29,3.9,57.3,10.6,85,19.9c22.4,7.5,43.6,17.8,64.4,29.1c19.8,10.8,40.2,20.4,62.2,26.1c34.2,8.9,69.3,10.4,104.4,11.8
	c12.4,0.5,24.9-0.1,37.4-1c18.2-1.3,35.3-6.3,50.5-16.8c14.6-10.1,22.5-24,23-41.8c0.4-13.2,9.5-22.8,22.9-24.3
	c3.8-0.4,8-2.3,11-4.7c3.7-2.9,6.7-6.9,9.3-10.9c15.2-22.5,21.3-48,23.9-74.5c0.4-3.8-1.2-6.1-3.9-8.5c-7-6.3-8.8-14.5-6.6-23.2
	c2.2-8.8,8.1-14.4,17.3-16.5c3.9-0.9,8.3-1.7,11.4-4c4.1-3.1,7.9-7.3,10.6-11.7c15.9-26,22.8-54.4,20.9-84.8
	c-0.4-6.2-2.5-12.8-5.7-18.1c-1.5-2.6-7.3-2.7-11.1-3.9c-11.7-3.7-17.3-13-16-26.3c0.8-8.6,10.3-18.3,19.3-18.7
	c6.3-0.3,10.2-3.5,13.6-8c7.3-9.4,11.8-20.1,14.8-31.5c5.5-20.9,7.8-42,2.2-63.2c-4-15.2-11.2-24.1-26.3-23.9
	c-30.8,0.3-61.6,0.1-92.4,0.1c-23,0-45.9,0.2-68.9,0c-9.6-0.1-17.3-3.9-21.9-12.8c-4.3-8.4-3-16.4,1.5-24.5
	c12.5-22.5,25.1-44.9,36.8-67.8c14-27.3,25.5-55.6,33.6-85.3c7-25.8,11.8-51.7,7.7-78.5c-2.7-17.7-9.6-33.2-23.7-44.9
	c-6.4-5.3-13.4-9.5-21.9-11.4c-1.5,5.2-2.9,10-4.4,14.9c-9.7,31-24.1,59.8-42.7,86.2c-13.7,19.4-28.9,37.9-44,56.3
	c-18.9,22.9-40.6,43-63.3,62c-18.2,15.3-37.2,29.7-56.4,43.8c-31.4,22.9-65,42.5-99.7,60C360.8,390.4,326.6,404.7,291,416.2z
	 M57,610.5c0,70.2,0.1,140.3-0.1,210.5c0,12.1,9.5,24,24.2,24c45.8-0.1,91.7-0.2,137.5,0.1c15.1,0.1,26.5-10.3,26.5-26.8
	c-0.1-138.5,0-277,0-415.5c0-1,0-2,0-3c-0.6-14-11-24.1-23.3-24.1c-47.2,0.1-94.3,0-141.5,0.1c-13.7,0-23.2,10-23.2,23.7
	C57,469.8,57,540.2,57,610.5z"/>
</svg>
