<?xml version="1.0" encoding="utf-8"?>
<!-- Generator: Adobe Illustrator 24.2.0, SVG Export Plug-In . SVG Version: 6.00 Build 0)  -->
<svg version="1.1" id="Слой_1" xmlns="http://www.w3.org/2000/svg" xmlns:xlink="http://www.w3.org/1999/xlink" x="0px" y="0px"
	 viewBox="0 0 232 232" style="enable-background:new 0 0 232 232;" xml:space="preserve">
<path d="M116.5,0.4c7.7,17.2,14.6,34.9,23.3,51.6c12.7,24.3,34.1,39.3,58.5,50.3c9.3,4.2,18.9,8,28.4,11.8c1.5,0.6,3.2,0.8,4.8,1.2
	c0,0.3,0,0.7,0,1c-23.7,9.2-47.6,18.1-67.7,34.5c-10.6,8.6-19.2,19.1-25.1,31.1c-8.1,16.4-14.9,33.5-22.2,50.4c-0.3,0-0.7,0-1,0
	c-2.9-7.9-5.6-15.8-8.8-23.6C99.9,192.2,92,176,80.1,162.3c-14-16.3-32.3-26.4-51.6-34.8c-9.2-4-18.7-7.4-28-11c0-0.3,0-0.7,0-1
	c7.3-2.6,14.6-5,21.7-8c15.8-6.5,31.1-14,44.7-24.7c15.9-12.6,26.3-29.3,34.6-47.3c4.4-9.6,8.3-19.5,12.3-29.4
	c0.7-1.8,1.1-3.8,1.7-5.6C115.8,0.4,116.2,0.4,116.5,0.4z M116.8,21.6c-0.3,0-0.7,0-1,0c-0.5,1.4-1,2.8-1.4,4.2
	c-6.3,21.3-12.6,42.6-19.1,63.9c-0.6,2-2.4,4.6-4.2,5.2c-10.3,3.4-20.8,6.3-31.3,9.4c-12.4,3.7-24.7,7.5-38,11.6
	c2,0.8,3.1,1.2,4.1,1.6c21.5,6.5,43,13.1,64.5,19.4c2.9,0.8,4.1,2.2,4.8,4.8c4,13.7,8.1,27.4,12.1,41.1c2.8,9.3,5.5,18.6,8.7,29.3
	c1-2.6,1.5-3.7,1.8-5c6.3-21.3,12.6-42.6,18.8-64c1-3.5,2.6-5.6,6.3-6.6c14.9-4.2,29.8-8.7,44.7-13.1c7.4-2.2,14.7-4.6,23.2-7.2
	c-2.7-0.9-4.2-1.4-5.7-1.9c-20.8-6.3-41.6-12.7-62.5-18.8c-3.3-1-4.8-2.5-5.7-5.7c-3-10.9-6.2-21.7-9.4-32.5
	C124,45.4,120.3,33.5,116.8,21.6z"/>
</svg>
