<svg viewBox="0 0 57 57" fill="none" xmlns="http://www.w3.org/2000/svg"><path d="M56.11 40.969c0 1.514-1.158 2.672-2.672 2.672H19.593L1.78 56.109H.89V3.562c0-1.514 1.158-2.67 2.672-2.67h49.876c1.514 0 2.671 1.157 2.671 2.671V40.97z" stroke="#000" stroke-width="2" stroke-miterlimit="10"/><path d="M52.547 4.453H4.453v28.5h48.094v-28.5z" stroke="#000" stroke-width="2" stroke-miterlimit="10"/><path d="M23.156 24.938h-.89v-12.47h.89l11.578 6.235-11.578 6.235zM3.563 37.406H14.25m5.344 0H42.75m1.781 0h1.782m1.781 0h1.781m1.781 0h1.782m-36.516-1.781v3.563" stroke="#000" stroke-width="2" stroke-miterlimit="10"/></svg>