<svg viewBox="0 0 57 46" fill="none" xmlns="http://www.w3.org/2000/svg"><path d="M52.547.885H1.78c-.534 0-.89.354-.89.884v35.385c0 .53.356.885.89.885h50.766c1.96 0 3.562-1.593 3.562-3.539V4.423c0-1.946-1.603-3.538-3.562-3.538zm-39.187 0v37.154" stroke="#000" stroke-width="2" stroke-miterlimit="10"/><path d="M7.125 22.115a2.663 2.663 0 002.672-2.653 2.663 2.663 0 00-2.672-2.654 2.663 2.663 0 00-2.672 2.654 2.663 2.663 0 002.672 2.653zM8.906 5.308H5.344v7.961h3.562V5.308zm0 20.346H5.344v7.961h3.562v-7.961zm41.86 7.961c.534 0 .89-.354.89-.884V6.192c0-.53-.356-.884-.89-.884H17.813v28.307h32.953z" stroke="#000" stroke-width="2" stroke-miterlimit="10"/><path d="M54.328 45.116H4.453l-3.562-1.77 3.562-1.769h49.875v3.539zm-42.75-3.539v3.539m3.562-3.539v3.539m3.563-3.539v3.539M57 43.346h-2.672" stroke="#000" stroke-width="2" stroke-miterlimit="10" stroke-linejoin="round"/><path d="M34.734 18.577v1.77m0 1.769v1.769m0 1.769v1.769m0-12.384v1.769m0-5.308v1.77m-2.671 6.192H30.28M22.266 8.846h-1.782m28.5 0h-1.78M22.266 30.077h-1.782m28.5 0h-1.78M28.5 19.462h-1.781m16.031 0h-1.781m-1.781 0h-1.782" stroke="#000" stroke-width="2" stroke-miterlimit="10"/></svg>