<?xml version="1.0" encoding="utf-8"?>
<!-- Generator: Adobe Illustrator 25.3.1, SVG Export Plug-In . SVG Version: 6.00 Build 0)  -->
<svg version="1.1" id="Слой_1" xmlns="http://www.w3.org/2000/svg" xmlns:xlink="http://www.w3.org/1999/xlink" x="0px" y="0px"
	 viewBox="0 0 353.4 229.8" style="enable-background:new 0 0 353.4 229.8;" xml:space="preserve">
<path d="M159.5,176.2L262.4,73.3c1.9,10.4,2,21,0.3,32c-3.4,20.8-13.9,37.5-29.6,51.2C213.2,173.9,185.1,181.4,159.5,176.2z
	 M85.9,175.2L68,193.2c-5.4-3.6-10.7-7.5-15.9-11.7c-18.2-14.6-33.3-32.1-45.7-51.8c-5.8-9.3-6.5-18.9-0.6-28.3
	C34.6,55.7,74.7,24.1,126.7,9.6c41.7-11.6,81.4-9.1,118.8,6L112.3,148.8C85.8,122,82.9,87.2,99.7,46.7C69,62.8,45.3,86,26.8,114.9
	C41.5,138.1,61.7,159.4,85.9,175.2z M116.3,87c-0.2,6.8,3.4,11.2,8.8,11.5c5.1,0.3,10.4-2.9,11.1-8.6c1-5.7,1.4-11.8,3.9-16.9
	c6.9-14.4,18.5-22.7,34.9-23.6c7.4-0.4,11.4-4.2,11.1-10.1c-0.3-5.7-4.9-9-12.3-8.7C143.7,32,118,58,116.3,87z M346.6,99.8
	c-14.3-22.5-32-41.7-53.3-57.3l-17.9,17.9c20.6,14.5,37.4,33,51.5,55c-36.5,52-83.4,86.1-149.5,87.2c-13.8,0.2-27-1.4-39.7-4.5
	l-19.9,19.9c18.7,6.3,38.5,9.8,59.5,10.4c11.5-1.4,23.2-2,34.6-4.4c58.7-12.3,103.5-44.6,135.5-95
	C353.5,119.2,352.7,109.5,346.6,99.8z M289.8,8.7L289.8,8.7c-5.8-5.8-15.4-5.8-21.2,0L76.1,201.2c-5.8,5.8-5.8,15.4,0,21.2l0,0
	c5.8,5.8,15.4,5.8,21.2,0L289.8,30C295.7,24.1,295.7,14.6,289.8,8.7z"/>
</svg>
