<?xml version="1.0" encoding="utf-8"?>
<!-- Generator: Adobe Illustrator 24.2.0, SVG Export Plug-In . SVG Version: 6.00 Build 0)  -->
<svg version="1.1" id="Слой_1" xmlns="http://www.w3.org/2000/svg" xmlns:xlink="http://www.w3.org/1999/xlink" x="0px" y="0px"
	 viewBox="0 0 353.4 229.8" style="enable-background:new 0 0 353.4 229.8;" xml:space="preserve">
<g>
	<path d="M177.3,228.3C130,227,88.7,210.8,52.1,181.5c-18.2-14.6-33.3-32.1-45.7-51.8c-5.8-9.3-6.5-18.9-0.6-28.3
		C34.6,55.7,74.7,24.1,126.7,9.6c57.7-16.1,111.4-5,160.7,28.7c24,16.4,43.6,37,59.2,61.5c6.1,9.7,6.9,19.4,0.8,29.1
		c-32,50.4-76.8,82.7-135.5,95C200.5,226.3,188.8,226.9,177.3,228.3z M326.9,115.3C308,86,284.3,62.7,253.3,47.1
		c9.6,18.5,12.7,37.8,9.4,58.2c-3.4,20.8-13.9,37.5-29.6,51.2c-26.1,22.8-66.4,28.7-96.6,10.9C88.5,139,78.7,97.3,99.7,46.7
		C69,62.8,45.3,86,26.8,114.9c30.7,48.3,85,88.7,150.6,87.6C243.5,201.4,290.4,167.3,326.9,115.3z M116.3,87
		c-0.2,6.8,3.4,11.2,8.8,11.5c5.1,0.3,10.4-2.9,11.1-8.6c1-5.7,1.4-11.8,3.9-16.9c6.9-14.4,18.5-22.7,34.9-23.6
		c7.4-0.4,11.4-4.2,11.1-10.1c-0.3-5.7-4.9-9-12.3-8.7C143.7,32,118,58,116.3,87z"/>
</g>
</svg>
