<?xml version="1.0" encoding="utf-8"?>
<!-- Svg Vector Icons : http://www.onlinewebfonts.com/icon -->
<!DOCTYPE svg PUBLIC "-//W3C//DTD SVG 1.1//EN" "http://www.w3.org/Graphics/SVG/1.1/DTD/svg11.dtd">
<svg version="1.1" xmlns="http://www.w3.org/2000/svg" xmlns:xlink="http://www.w3.org/1999/xlink" x="0px" y="0px" viewBox="0 0 1000 1000" enable-background="new 0 0 1000 1000" xml:space="preserve">
<metadata> Svg Vector Icons : http://www.onlinewebfonts.com/icon </metadata>
<g><path d="M146,688.6h-6.5c-16.5,0-29.9,13.4-29.9,29.9v6.5c0,16.5,13.4,29.9,29.9,29.9h6.5c16.5,0,29.9-13.4,29.9-29.9v-6.5C176,702.1,162.5,688.6,146,688.6z"/><path d="M146,423.1h-6.5c-16.5,0-29.9,13.4-29.9,29.9v6.5c0,16.5,13.4,29.9,29.9,29.9h6.5c16.5,0,29.9-13.4,29.9-29.9V453C176,436.5,162.5,423.1,146,423.1z"/><path d="M146,555.8h-6.5c-16.5,0-29.9,13.5-29.9,30v6.5c0,16.5,13.4,29.9,29.9,29.9h6.5c16.5,0,29.9-13.4,29.9-29.9v-6.5C176,569.3,162.5,555.8,146,555.8z"/><path d="M491.3,157.6H225.7c-9.2,0-16.6,7.4-16.6,16.6c0,9.2,7.4,16.6,16.6,16.6h265.5c9.2,0,16.6-7.4,16.6-16.6C507.9,165,500.5,157.6,491.3,157.6z"/><path d="M146,290.3h-6.5c-16.5,0-29.9,13.4-29.9,29.9v6.5c0,16.5,13.4,29.9,29.9,29.9h6.5c16.5,0,29.9-13.4,29.9-29.9v-6.5C176,303.8,162.5,290.3,146,290.3z"/><path d="M942.3,290.3H707V140.9c0-45.7-37.2-83-83-83H422.8c-7.4-28.6-33.4-49.8-64.3-49.8c-30.9,0-56.9,21.2-64.3,49.8H93c-45.8,0-83,37.2-83,83v697c0,45.8,37.2,83,83,83h269.2v23.1c0,26.2,21.5,47.7,47.7,47.7h532.4c26.2,0,47.7-21.5,47.7-47.7V338C990,311.8,968.5,290.3,942.3,290.3z M358.5,41.4c18.3,0,33.2,14.9,33.2,33.2c0,18.3-14.9,33.2-33.2,33.2c-18.3,0-33.2-14.9-33.2-33.2C325.3,56.3,340.2,41.4,358.5,41.4z M373.8,306.9l-131.5,0c-9.2,0-16.6,7.4-16.6,16.6c0,9.2,7.4,16.6,16.6,16.6l119.8,0v99.6l-119.8,0c-9.2,0-16.6,7.4-16.6,16.6c0,9.2,7.4,16.6,16.6,16.6l119.8,0v99.6l-119.8,0c-9.2,0-16.6,7.5-16.6,16.6c0,9.2,7.4,16.6,16.6,16.6l119.8,0v99.6l-119.8,0c-9.2,0-16.6,7.4-16.6,16.6c0,9.2,7.4,16.6,16.6,16.6l119.8,0v149.4H93c-27.5,0-49.8-22.3-49.8-49.8v-697c0-27.4,22.3-49.8,49.8-49.8h201.3c1.5,5.9,3.8,11.4,6.8,16.6h-75.3c-9.2,0-16.6,7.4-16.6,16.6c0,9.2,7.4,16.6,16.6,16.6h265.5c9.2,0,16.6-7.4,16.6-16.6c0-9.2-7.4-16.6-16.6-16.6H416c3-5.1,5.3-10.7,6.8-16.6h201.3c27.5,0,49.8,22.3,49.8,49.8v149.4H409.9C395.5,290.3,382.6,296.8,373.8,306.9z M916.4,856c-5.6,5.6-14.9,14.9-14.9,14.9s-9.4,9.3-15,14.9c-5.6,5.6-23.8,6-29.8-0.1c-6-6-76-76.5-76-76.5l-14.9-15c0,0-24.2,5.5-29.8-0.1c-5.6-5.6-9.3-9.3-9.3-9.3s-5.6-5.6,1-12.1c6.6-6.5,23.4-23.2,23.4-23.2l-62.7-63.1l-34,33.8c7.9,15.4,12.8,32.7,12.7,51.2c-0.2,62-50.6,112.1-112.6,111.9c-10.1,0-19.6-1.8-28.9-4.4l59.3-58.9l-13.8-65.5l-65.4-14.2L446.4,799c-2.4-9.2-4.1-18.6-4-28.5c0.2-62,50.6-112.2,112.6-112c20.6,0.1,39.7,6.1,56.3,15.8l32.8-32.6L541.9,539l-37.2-22.5l-29.7-29.9l-31.5-57.9l9.4-9.3l9.4-9.3l57.7,31.9l29.8,29.9l22.2,37.3L673.9,612l32.8-32.6c-9.6-16.6-15.5-35.7-15.5-56.3c0.2-62,50.6-112.1,112.6-111.9c10.1,0,19.7,1.8,28.9,4.4l-59.3,58.9l13.8,65.5l65.4,14.2l59.1-58.8c2.4,9.2,4.1,18.6,4,28.5c-0.2,62-50.6,112.2-112.6,112c-18.5-0.1-35.7-5-51.1-13l-33.9,33.7l62.8,63.1c0,0,16.8-16.7,23.4-23.3c6.6-6.5,12.1-0.9,12.1-0.9s3.8,3.7,9.3,9.4c5.6,5.6-0.1,29.8-0.1,29.8l14.8,15c0,0,70,70.4,76,76.5C922.5,832.2,922,850.4,916.4,856z"/></g>
</svg>