<?xml version="1.0" encoding="utf-8"?>
<!-- Generator: Adobe Illustrator 24.2.0, SVG Export Plug-In . SVG Version: 6.00 Build 0)  -->
<svg version="1.1" id="Слой_2" xmlns="http://www.w3.org/2000/svg" xmlns:xlink="http://www.w3.org/1999/xlink" x="0px" y="0px"
	 viewBox="0 0 101 101" style="enable-background:new 0 0 101 101;" xml:space="preserve">
<path d="M64.8,4.5l-6.1,13.7l-8.3-4.3l-5.3,14l-10-6.3v-17L28.7,0l-6.6,5.3l-0.1,30.6l-1.8,1.2l8.6,5.8l8.7-6.2l-2.4-1.3l0-7.2
	l17.4,10.9L33.9,50.5L11.7,37.8l6.3-4.2v-5.3L3.4,37.6v40.1l9.9,6.5V64.2l14.1,9.1v19.4l13.3,8.3l56.7-32.8V25.1L64.8,4.5z
	 M52.2,29.7l3.2-8.2l12.3,7.9l-3.6,7.9L52.2,29.7z M56.8,75l-9.1,5.1v-9.3l9.1-5.1V75z M68.4,68.6l-8.4,4.7V64l8.4-4.7V68.6z
	 M80.8,61.7l-8.6,4.8v-9.2l8.6-4.8V61.7z M78.3,27.1l-12.4-7.7l3.6-7.2l12.4,8L78.3,27.1z M92.8,55l-8.3,4.6v-9.3l8.3-4.6V55z"/>
</svg>
