<?xml version="1.0" encoding="utf-8"?>
<!-- Generator: Adobe Illustrator 24.2.0, SVG Export Plug-In . SVG Version: 6.00 Build 0)  -->
<svg version="1.1" id="Слой_1" xmlns="http://www.w3.org/2000/svg" xmlns:xlink="http://www.w3.org/1999/xlink" x="0px" y="0px"
	 viewBox="0 0 1000 1000" style="enable-background:new 0 0 1000 1000;" xml:space="preserve">
<path d="M10,243c1.3-6.6,2.3-13.4,4.1-19.9c13.1-48.5,56.6-83.4,106.8-84.1c54.2-0.8,108.3-0.2,162.5-0.3c29.5,0,59,0.1,88.5-0.1
	c4.1,0,5.9,0.7,6.9,5.3c1.3,6.1,0.3,10.6-3.2,15.6c-11.6,16.9-22.9,34-33.9,51.3c-4.2,6.6-7.6,13.7-10.6,20.8
	c-1.5,3.6-3.2,4.5-6.9,4.5c-65.5-0.1-131-0.1-196.5-0.1c-14,0-20.4,6.4-20.4,20.5c0,204.2,0,408.3,0,612.5
	c0,14.1,6.2,20.3,20.5,20.3c248.1,0,496.3,0,744.4,0c14.1,0,20.4-6.3,20.4-20.5c0-204.2,0-408.3,0-612.5c0-14.1-6.4-20.4-20.5-20.4
	c-84.7,0-169.3,0-254,0c-2,0-4,0-7.1,0c1.7-1.5,2.7-2.4,3.7-3.2c30.3-22.9,49.9-52.7,57.9-89.9c0.7-3.4,2-4.2,5.2-4.2
	c66,0.1,132-0.3,198,0.2c57.5,0.5,103.6,40.8,112.7,97.4c0.4,2.6,0.9,5.2,1.3,7.8c0,212.7,0,425.3,0,638c-0.3,1.1-0.7,2.2-0.9,3.3
	c-7,47.7-33.2,79.7-78.5,95.9c-8.2,2.9-17,3.9-25.6,5.8c-256.7,0-513.3,0-770,0c-1.1-0.3-2.2-0.7-3.3-0.9
	C64.9,980.9,26,947.4,13.9,902c-1.6-6.2-2.6-12.6-3.9-19C10,669.7,10,456.3,10,243z M517,13c-0.9,0.3-1.9,0.7-2.8,0.8
	c-70.6,9.2-108,85.3-71.4,146.2c4,6.6,3.8,10.6-0.4,16.8c-16,23.3-31.4,47.1-46.9,70.7c-10.1,15.4-7.8,34.2,5.4,45.7
	c16.1,14.1,39.6,10.6,52-7.9c16.7-25,33.3-50.2,49.7-75.5c2.3-3.6,4.7-3.9,8.5-3.7c9.9,0.4,20.1,1.3,29.8-0.1
	c42.5-6.4,75.9-40.8,81-82.8c5.4-44.3-18.3-85.9-59.1-102.5c-9.1-3.7-19.1-5.2-28.8-7.7C528.3,13,522.7,13,517,13z M448.8,456.7
	c-2.5,0-5,0-7.5,0.2c-19.4,1.4-33.3,20.6-28.7,39.5c3.9,15.8,16.6,25.3,34.4,25.3c109.8,0,219.6,0,329.4,0c2.3,0,4.7-0.2,7-0.5
	c19.3-2.5,32-21.5,26.9-40.3c-4-15.1-16.3-24.1-33.2-24.1c-55-0.1-110,0-165,0C557.8,456.7,503.3,456.7,448.8,456.7z M448.8,693.7
	c-2.5,0-5,0-7.5,0.2c-19.4,1.4-33.3,20.6-28.7,39.5c3.9,15.8,16.6,25.3,34.4,25.3c109.8,0,219.6,0,329.4,0c2.3,0,4.7-0.2,7-0.5
	c19.3-2.5,32-21.6,27-40.4c-4-15.1-16.3-24.1-33.2-24.1c-55.2-0.1-110.3,0-165.5,0C557.4,693.7,503.1,693.7,448.8,693.7z
	 M209.1,463.7c-12.6-8.6-28.2-7.8-39.5,1.5c-16.5,13.7-15.5,39.1,2.4,51.7c22.1,15.5,44.4,30.7,66.5,46.1
	c18.3,12.7,35.8,10,49.3-7.7c12.7-16.5,25.3-33.1,37.9-49.6c24.5-32,48.9-64.1,73.5-96.1c6.5-8.4,9.4-17.7,7.1-28.1
	c-3-13.4-11.5-22.2-24.9-25c-13.9-2.9-25.1,2.1-33.7,13.4c-24.2,31.7-48.4,63.3-72.6,94.9c-7.4,9.6-14.8,19.3-22.3,29.2
	C237.9,483.6,223.6,473.5,209.1,463.7z M249.3,728.5c-13.4-9.3-26.8-18.7-40.3-27.8c-13.5-9.1-30.6-7.5-41.7,3.6
	c-14.3,14.4-12.2,37.7,4.7,49.7c22.1,15.5,44.4,30.7,66.5,46.1c18.3,12.7,35.8,9.9,49.3-7.7c12.7-16.5,25.3-33.1,37.9-49.6
	c24.5-32,48.9-64.1,73.5-96c6.5-8.4,9.4-17.7,7.1-28.1c-3-13.4-11.6-22.1-25-24.9c-13.9-2.9-25.1,2.2-33.7,13.4
	c-29.6,38.8-59.3,77.5-89,116.3c-1.9,2.5-3.9,5-5.9,7.6C251.5,730,250.4,729.2,249.3,728.5z"/>
</svg>
