<?xml version="1.0" encoding="utf-8"?>
<!-- Generator: Adobe Illustrator 24.2.0, SVG Export Plug-In . SVG Version: 6.00 Build 0)  -->
<svg version="1.1" id="Слой_1" xmlns="http://www.w3.org/2000/svg" xmlns:xlink="http://www.w3.org/1999/xlink" x="0px" y="0px"
	 viewBox="0 0 1000 1000" style="enable-background:new 0 0 1000 1000;" xml:space="preserve">
<path d="M501.3,120.4c-0.4,0-1.2-0.1-1.2-0.1c-0.5,0-0.9-0.1-1.4-0.1c-165.6,0-299.8,134.3-299.8,299.8
	c0,165.6,134.2,299.8,299.8,299.8c0.4,0,0.8,0,1.2-0.1c0,0,0.9,0.3,1.4,0.3C666.8,720,801,585.7,801,420.2S666.8,120.4,501.3,120.4z
	 M793.6,659.5c4.1-1.1,8.7-1.4,13.9-0.6c22.1,3.4,32-10.2,21.9-30.1c-10-20,0-37.4,22.3-38.7c22.4-1.3,29.2-16.6,15.2-34.1
	c-14-17.4-7.8-36.6,13.7-42.5c21.6-5.8,25.1-22.4,7.7-36.5c-17.4-14.2-15.2-34.1,4.6-44.5c20-10.2,20-26.9,0-37.2
	c-19.9-10.3-22-30.3-4.6-44.4c17.4-14.2,13.9-30.6-7.7-36.5c-21.6-5.9-27.8-25-13.7-42.5c14-17.4,7.2-32.8-15.2-34.1
	c-22.3-1.3-32.4-18.7-22.3-38.6c10.1-20,0.2-33.6-21.9-30.2c-22.1,3.4-35.6-11.5-29.8-33.2c5.7-21.7-6.8-32.9-27.7-25
	c-21,7.9-37.2-3.9-36.1-26.2c1.1-22.4-13.5-30.8-32.3-18.6c-18.9,12.1-37.2,3.9-40.8-18.2s-19.6-27.3-35.4-11.6
	c-15.9,15.8-35.6,11.6-43.7-9.3c-8.3-20.9-25-22.6-37.2-3.9c-6.6,10.2-15.6,14.2-24.3,13.4l0,0c-8.8,1-17.8-3.2-24.6-13.4
	c-12.3-18.7-29-16.9-37.1,3.9s-27.8,25-43.7,9.3c-15.9-15.8-31.9-10.6-35.5,11.5s-22,30.3-40.8,18.2c-18.9-12.1-33.4-3.7-32.3,18.7
	c1,22.3-15.2,34.1-36.1,26.2c-21-7.9-33.4,3.3-27.7,25s-7.7,36.6-29.9,33.2c-22.1-3.4-32,10.1-21.9,30.2c10,20,0,37.3-22.3,38.6
	c-22.4,1.3-29.2,16.6-15.2,34c14,17.5,7.8,36.6-13.7,42.5c-21.6,5.9-25.1,22.3-7.7,36.5C129,365,126.9,385,107,395.2
	c-20,10.3-20,27,0,37.2c19.9,10.3,22,30.3,4.7,44.5c-17.4,14.1-13.9,30.6,7.7,36.5s27.8,25,13.8,42.5c-14,17.4-7.1,32.8,15.2,34.1
	c22.3,1.2,32.4,18.6,22.3,38.7c-10.1,19.9-0.2,33.5,21.9,30.1c5.2-0.8,9.8-0.5,13.9,0.6l-123,230.3h129.9l66,100.1l124.3-204.7
	c13.8-7.1,28.2-1.5,34.9,15.6c8.1,20.9,24.8,22.6,37.1,3.9c6.7-10.1,15.6-14.2,24.3-13.4v0.2c8.9-1,17.9,3.1,24.6,13.4
	c12.3,18.7,28.9,17,37.1-3.9c6.6-17.1,21.1-22.7,34.9-15.6L720.7,990l66-100.1h130L793.6,659.5z M659.4,705.8l-4.7,2.6
	c-46,24.4-98.4,38.3-154,38.3c-0.2,0-0.6-0.2-0.6-0.2c-0.3,0-0.5,0-0.8,0c-55.6,0-108-14-154-38.4l-4.7-2.6
	c-100.8-55.7-169.3-162.5-169.3-285c0-179.7,147.2-325.9,328-325.9c0.2,0,0.6,0.2,0.6,0.2c0.3,0,0.6,0,0.8,0
	c180.9,0,328,146.2,328,325.9C828.7,543.2,760.3,650.1,659.4,705.8z M240.3,497.6l-5.1-22.2c-0.8-3.7-0.6-6.8,0.8-9.1
	c1.4-2.4,3.4-3.9,6.1-4.5c2.3-0.5,4.4-0.3,6.3,0.8c1.3,0.7,2.5,1.9,3.5,3.6c0-2.9,0.7-5.2,2-6.9c1.3-1.7,3.2-2.8,5.6-3.3
	c2-0.5,3.9-0.4,5.7,0.2c1.8,0.6,3.3,1.5,4.6,2.9c0.8,0.9,1.6,2.3,2.3,4.2c1,2.6,1.5,4.3,1.7,5.2l4.7,20.5L240.3,497.6z M252.6,482.2
	l-1.2-5.2c-0.4-1.9-1-3.1-1.8-3.6c-0.8-0.6-1.8-0.7-3-0.5c-1.1,0.3-1.9,0.8-2.4,1.7c-0.5,0.9-0.5,2.2-0.1,4l1.2,5.2L252.6,482.2z
	 M267.7,478.8l-1.4-6c-0.5-2-1.2-3.4-2.1-4.1c-0.9-0.7-2-0.9-3.2-0.6c-1.1,0.3-2,0.9-2.5,1.9c-0.5,1-0.5,2.5,0,4.6l1.4,6
	L267.7,478.8z M262.5,424.7l0.6,13.8l6.6,1.6l0.6,12.4l-40-13l-0.6-13.3l38.7-16.6l0.6,12.7L262.5,424.7z M254.1,427.6l-13.9,5
	l14.3,3.7L254.1,427.6z M276.9,355.5l-9,52.2l-38.8-6.7l2.1-12l29.3,5l1.4-8.1l-29.3-5l2.1-12l29.3,5l1.4-8.2l-29.3-5l2.1-12
	L276.9,355.5z M267.3,281.8l35.1,17.7l-5.2,10.2L278,300l12.7,22.9l-5.2,10.2l-35.1-17.7l5.2-10.2l19.4,9.8l-12.8-23L267.3,281.8z
	 M337.9,266.7l-6,7.7l-6.8-5.3l-15.4,19.9l6.8,5.2l-6,7.7l-13.9-10.8l2.5-3.2c-3.6-5.7-8.6-11-14.9-15.9l-6.9-5.4l20.2-26.1
	l23.9,18.6l2.6-3.4L337.9,266.7z M313.9,268.9l-16.3-12.6l-6,7.7l0.4,0.3c4.3,3.3,9,8.2,14.2,14.5L313.9,268.9z M307.4,230.2
	l24.3-21.8l5.6,6.3l-15.2,13.6l4.2,4.7l14.1-12.6l5.4,6L331.7,239l5.2,5.8l15.6-14l6,6.6l-24.7,22.2L307.4,230.2z M379.5,216
	l-11.7,7.4l1.8,6.5l-10.5,6.6l-8.4-41.2l11.2-7.1l33.5,25.4l-10.8,6.8L379.5,216z M372.8,210.1l-11.2-9.7l3.9,14.3L372.8,210.1z
	 M431.1,199.4l-11.3,4.5l-11.1-27.6l-8.8,3.5l4.5,11.2c1.9,4.6,3,8.1,3.3,10.5s-0.1,4.4-1.5,6.2c-1.4,1.7-4.1,3.4-8.1,5
	c-1.2,0.5-2.7,0.9-4.4,1.3l-3-7.4l1.7-0.7c1.5-0.6,2.5-1.4,2.8-2.3c0.4-0.9,0.2-2.3-0.5-4.1l-9.7-24.2l31.4-12.6L431.1,199.4z
	 M444.5,171.5l6.4-1.3c5.8-1.2,10.4-1,13.6,0.5c3.2,1.5,5.3,4.4,6.2,8.8c0.7,3.6,0,6.5-2.2,9c-2.2,2.4-5.7,4.1-10.6,5.1l-20.5,4.1
	l-7.8-38.6l11.9-2.4L444.5,171.5z M447.6,186.9l6.1-1.2c3.7-0.8,5.3-2.5,4.8-5.2c-0.5-2.4-2.6-3.2-6.3-2.4l-6.1,1.2L447.6,186.9z
	 M477,150.6l12.2-0.2l0.2,13.8l13.3-0.2l-0.2-13.8l12.2-0.2l0.6,39.4l-12.2,0.2l-0.2-15.9l-13.3,0.2l0.2,15.9l-12.2,0.2L477,150.6z
	 M538.3,168l6.4,1.3c5.8,1.2,10,3.1,12.4,5.8s3.2,6.1,2.3,10.5c-0.7,3.6-2.6,6-5.6,7.4s-6.9,1.5-11.7,0.5l-20.5-4.2l7.9-38.6
	l11.9,2.4L538.3,168z M535.1,183.4l6.1,1.3c3.7,0.8,5.9-0.2,6.4-2.9c0.5-2.4-1.1-3.9-4.9-4.7l-6.1-1.3L535.1,183.4z M567.9,158.6
	l11.9,2.5l-7.9,38.6l-11.9-2.5L567.9,158.6z M628,181.7l-16.1,35.9l-10.4-4.7l8.8-19.7L588,206.9l-10.5-4.7l16.1-35.9l10.5,4.7
	l-8.9,19.9l22.4-13.8L628,181.7z M623.8,169.2c-1.3,1.9-3,3.1-5.2,3.7c-2.2,0.5-4.4,0.3-6.7-0.7c-2.3-1-3.9-2.5-5-4.5
	s-1.3-4.1-0.7-6.3l4.3,1.9c-0.2,2.4,0.8,4,3.1,5.1c2.5,1.1,4.5,0.8,6.1-1L623.8,169.2z M661.5,254.2l-9.4-7.7l18.9-22.9l-10.3-8.5
	L641.8,238l-9.4-7.7l25-30.4l29.1,23.9L661.5,254.2z M680.2,245.1c5-4.1,10-5.9,15-5.4s9.6,3.2,13.7,8.1c4.2,5.1,6,10.1,5.6,15
	s-3.1,9.5-8,13.5c-3.5,2.9-7,4.7-10.2,5.4c-3.3,0.7-6.4,0.4-9.6-0.8s-6.1-3.5-8.9-6.9c-2.8-3.4-4.6-6.7-5.4-9.9s-0.5-6.4,0.7-9.7
	C674.3,251.2,676.7,248,680.2,245.1z M687.9,254.5c-3.1,2.5-4.8,4.9-5.2,7.2c-0.4,2.2,0.2,4.3,1.8,6.3c1.7,2,3.6,3,5.8,3.1
	c2.2,0,5-1.4,8.4-4.2c2.9-2.4,4.5-4.7,4.8-6.9c0.4-2.2-0.3-4.3-1.9-6.3c-1.6-1.9-3.5-2.9-5.8-2.9C693.7,250.7,691,252,687.9,254.5z
	 M726.4,271.6l18.2,32.2l-8.5,4.8l-6.1-10.8l-25.8,14.6l-6-10.6l25.8-14.6l-6.1-10.8L726.4,271.6z M730.1,318.8
	c6.1-2.1,11.4-2.1,15.9,0.1c4.6,2.2,7.9,6.3,10,12.3c2.2,6.2,2.2,11.5,0,16c-2.2,4.5-6.2,7.8-12.2,9.9c-4.3,1.5-8.2,2-11.5,1.5
	c-3.3-0.5-6.2-1.8-8.7-4.1c-2.5-2.2-4.5-5.4-5.9-9.5c-1.5-4.2-2-7.9-1.6-11.1c0.4-3.2,1.7-6.2,4-8.9
	C722.4,322.4,725.7,320.3,730.1,318.8z M734.1,330.3c-3.8,1.3-6.2,3-7.4,4.9c-1.2,2-1.3,4.2-0.5,6.6c0.9,2.5,2.3,4.1,4.4,4.9
	c2.1,0.8,5.2,0.5,9.4-1c3.5-1.2,5.8-2.8,6.9-4.8c1.1-2,1.3-4.2,0.4-6.6c-0.8-2.3-2.3-3.9-4.4-4.7C740.8,328.7,737.8,329,734.1,330.3
	z M731.3,404.4l-1.8-12l29.4-4.4l-1.4-9.4l-12,1.8c-4.9,0.7-8.6,1-11,0.8c-2.4-0.2-4.3-1.1-5.6-2.9s-2.4-4.8-3-9.1
	c-0.2-1.3-0.3-2.8-0.2-4.6l7.9-1.2l0.3,1.8c0.2,1.6,0.8,2.7,1.6,3.3c0.8,0.6,2.2,0.7,4.1,0.4l25.8-3.8l5,33.4L731.3,404.4z
	 M751.4,410c6.4,0.3,11.4,2.2,14.8,6s5,8.8,4.8,15.2c-0.3,6.5-2.2,11.5-5.9,14.9c-3.7,3.4-8.7,5-15,4.7c-4.6-0.2-8.3-1.1-11.2-2.8
	c-2.9-1.7-5.1-4-6.6-7c-1.5-3-2.2-6.7-2-11c0.2-4.4,1-8.1,2.6-10.9c1.5-2.9,3.9-5.1,7-6.8C742.9,410.6,746.8,409.8,751.4,410z
	 M750.9,422.2c-4-0.2-6.9,0.5-8.6,1.9s-2.7,3.4-2.8,5.9c-0.1,2.6,0.7,4.7,2.3,6.2c1.6,1.5,4.7,2.3,9.1,2.5c3.7,0.1,6.4-0.5,8.2-1.9
	c1.8-1.4,2.7-3.4,2.8-6c0.1-2.5-0.7-4.5-2.4-6C757.7,423.2,754.9,422.3,750.9,422.2z M721.4,489.8l3-13.4l11-2.4
	c2.6-0.6,4.2-1.1,5-1.6c0.7-0.5,1.2-1.3,1.4-2.3l-15.2-3.4l2.6-11.9l38.4,8.5l-2.6,11.9l-14.8-3.3c-0.2,1,0,1.9,0.6,2.7
	c0.6,0.7,2.3,2.1,5.3,4c2.2,1.4,3.7,2.7,4.6,3.8c0.8,1.1,1.3,2.8,1.3,4.9c0,2.1-0.5,5.4-1.4,9.8l-8.1-1.8l0.1-0.6
	c0.4-2,0.4-3.6-0.2-4.8c-0.6-1.1-1.6-2.2-3.2-3.2s-2.7-2-3.4-2.9s-1.1-2.1-1.4-3.4c-0.9,1.6-2.2,2.9-3.9,3.8c-1.7,1-4.1,1.9-7.3,2.6
	L721.4,489.8z M389.2,368.5v136.8h-23.3v-89.6c-3.8,4.6-7.4,8.4-11,11.3c-3.5,2.9-8,5.6-13.3,8.3v-30.6c7.9-4.1,14-9,18.3-14.8
	c4.3-5.7,7.7-12.8,10.2-21.3H389.2z M414.2,437.5c0-25.6,2.8-43.4,8.5-53.7c5.7-10.2,14.3-15.3,26-15.3c5.6,0,10.2,1.1,13.8,3.3
	c3.6,2.2,6.5,5.1,8.8,8.7c2.3,3.6,4,7.3,5.4,11.3c1.3,3.9,2.4,8.5,3.1,13.8c1.5,10,2.3,20.5,2.3,31.4c0,24.4-2.5,42.3-7.6,53.6
	c-5.1,11.3-13.9,17-26.3,17c-7,0-12.6-1.8-16.9-5.4c-4.3-3.6-7.8-8.9-10.6-15.9c-2-5-3.6-11.7-4.7-20.3
	C414.8,457.4,414.2,447.9,414.2,437.5z M437.1,437.6c0,17.1,0.9,28.8,2.8,35.1c1.9,6.3,4.6,9.4,8.1,9.4c2.3,0,4.4-1.3,6.1-4
	c1.7-2.7,3-6.9,3.8-12.6c0.8-5.7,1.2-14.7,1.2-26.9c0-17.9-0.9-29.9-2.8-36s-4.7-9.2-8.4-9.2c-3.8,0-6.6,3.1-8.3,9.4
	C438,409,437.1,420.6,437.1,437.6z M491.6,437.5c0-25.6,2.8-43.4,8.5-53.7c5.7-10.2,14.3-15.3,26-15.3c5.6,0,10.2,1.1,13.8,3.3
	c3.6,2.2,6.5,5.1,8.8,8.7c2.3,3.6,4,7.3,5.4,11.3c1.3,3.9,2.4,8.5,3.1,13.8c1.5,10,2.3,20.5,2.3,31.4c0,24.4-2.5,42.3-7.6,53.6
	c-5.1,11.3-13.9,17-26.3,17c-7,0-12.6-1.8-16.9-5.4c-4.3-3.6-7.8-8.9-10.6-15.9c-2-5-3.6-11.7-4.7-20.3
	C492.2,457.4,491.6,447.9,491.6,437.5z M514.5,437.6c0,17.1,0.9,28.8,2.8,35.1c1.9,6.3,4.6,9.4,8.1,9.4c2.3,0,4.4-1.3,6.1-4
	c1.7-2.7,3-6.9,3.8-12.6c0.8-5.7,1.2-14.7,1.2-26.9c0-17.9-0.9-29.9-2.8-36s-4.7-9.2-8.4-9.2c-3.8,0-6.6,3.1-8.3,9.4
	C515.3,409,514.5,420.6,514.5,437.6z M569.8,403.8c0-6.2,0.8-12.2,2.5-17.8c1.7-5.6,4.2-10,7.7-13s7.5-4.5,12.3-4.5
	c6.9,0,12.4,3.2,16.4,9.6s6,15,6,25.7c0,10.8-2,19.4-6,25.8s-9.5,9.6-16.4,9.6c-4.7,0-8.8-1.5-12.3-4.5s-6-7.4-7.7-13
	C570.7,416.1,569.8,410.1,569.8,403.8z M585.8,404c0,7.6,0.8,13.1,2.3,16.5c1,2.3,2.4,3.4,4.3,3.4c1.9,0,3.3-1.1,4.2-3.4
	c1.5-3.4,2.3-8.9,2.3-16.5c0-7.5-0.8-13-2.3-16.5c-0.9-2.2-2.4-3.3-4.2-3.3c-1.9,0-3.3,1.1-4.3,3.3
	C586.5,390.9,585.8,396.4,585.8,404z M640.3,368.5h12l-48,143.7h-11.8L640.3,368.5z M629.7,476.6c0-6.3,0.8-12.2,2.5-17.8
	s4.2-9.9,7.7-13c3.5-3.1,7.6-4.6,12.2-4.6c7,0,12.5,3.2,16.5,9.7c4,6.5,6,15,6,25.7c0,10.7-2,19.3-6,25.7c-4,6.5-9.5,9.7-16.5,9.7
	c-4.7,0-8.8-1.5-12.2-4.6s-6-7.4-7.7-13S629.7,482.9,629.7,476.6z M645.6,476.7c0,7.6,0.8,13.1,2.3,16.5c0.9,2.2,2.4,3.3,4.2,3.3
	s3.3-1.1,4.3-3.3c1.5-3.4,2.3-8.9,2.3-16.5c0-7.6-0.8-13.1-2.3-16.6c-1-2.2-2.4-3.3-4.3-3.3s-3.3,1.1-4.2,3.4
	C646.4,463.7,645.6,469.2,645.6,476.7z M350.7,609.8l-18-15.1l-24.8,26.7l-11.5-9.7l32.9-35.3l29.5,24.8L350.7,609.8z M366.7,651.7
	l-15-8.4l-6.3,5.5l-13.5-7.6l41.3-31.6l14.4,8.1l-9.1,49.7l-13.9-7.8L366.7,651.7z M369.4,641.4l4.3-17.3l-13.7,12L369.4,641.4z
	 M405.1,626.5l24.1,8c5.3,1.7,8.8,4.2,10.5,7.5c1.8,3.2,1.8,7,0.2,11.4c-1.6,4.5-4.3,7.6-8.1,9.2c-3.8,1.6-8.6,1.4-14.4-0.5l-8-2.6
	l-6,16.6l-14.6-4.8L405.1,626.5z M412.8,650.4l3.6,1.2c2.8,0.9,4.9,1.1,6.4,0.6c1.5-0.6,2.5-1.5,3-3c0.5-1.4,0.4-2.7-0.2-4
	c-0.6-1.3-2.3-2.4-5-3.3l-4.1-1.4L412.8,650.4z M473.9,683.6l-17.3-2.2l-3.5,7.4l-15.5-2l25.1-44.4l16.6,2.2l11.9,49.2l-15.9-2.1
	L473.9,683.6z M472.2,673.1l-3.1-17.5l-7.8,16.1L472.2,673.1z M498.9,646.6l15.3-1.1l1.4,16.5l16.7-1.2l-1.4-16.5l15.4-1.1l3.9,47.1
	l-15.4,1.1l-1.6-19.1l-16.7,1.2l1.6,19.1l-15.3,1.1L498.9,646.6z M549.1,642.7l44.8-12.3l3.4,11.2l-15,4.1l10.5,34.2l-14.7,4.1
	l-10.5-34.2l-15,4.1L549.1,642.7z M638.8,608.1l23.5,41.7l-12.7,6.4l-12.9-22.9l-3.5,31.2l-12.8,6.5l-23.5-41.7l12.8-6.5l13,23.1
	l3.5-31.4L638.8,608.1z M697.8,623.2l-13.1-14.6l-1,0.8c-1.1,0.9-1.8,1.9-2.1,3.1c-0.2,0.9-0.1,2.4,0.4,4.5l3.6,16l-13.2,10.7
	l-3.7-15c-0.2-0.7-0.3-1.9-0.4-3.6c-0.1-1.6,0-2.8,0.2-3.4c0.2-1,0.9-2.2,1.9-3.8c-2.1,1-3.9,1.7-5.4,1.9c-2.4,0.4-4.7,0.2-6.9-0.5
	c-2.2-0.7-4.2-2.1-6-4.1c-2.1-2.3-3.2-4.7-3.5-7.3c-0.3-2.5,0.3-4.9,1.7-7c1.4-2.1,3.9-4.7,7.5-7.6l19.5-15.7l32.3,36L697.8,623.2z
	 M672,594.4l-5.1,4.1c-2.1,1.7-3.3,3.2-3.5,4.5c-0.2,1.2,0.2,2.5,1.2,3.6c0.7,0.8,1.6,1.3,2.6,1.5c1,0.2,2,0.1,2.9-0.4
	c1.8-0.9,3-1.6,3.5-2l4.9-4L672,594.4z"/>
</svg>
