<?xml version="1.0" encoding="utf-8"?>
<!-- Generator: Adobe Illustrator 25.3.1, SVG Export Plug-In . SVG Version: 6.00 Build 0)  -->
<svg version="1.1" id="Слой_1" xmlns="http://www.w3.org/2000/svg" xmlns:xlink="http://www.w3.org/1999/xlink" x="0px" y="0px"
	 viewBox="0 0 36 36" style="enable-background:new 0 0 36 36;" xml:space="preserve">
<path d="M8.7,16.7c-1.3,0-2.6,0.3-3.7,0.9c1.6-3.9,4.2-7.4,7.7-10.1C13.4,7,13.5,5.8,12.9,5c-0.7-0.8-1.9-0.9-2.7-0.3
	C3.1,10.2,0,17.8,0,22.4c0,3.4,2.1,6.4,5.4,7.8c1,0.5,2.2,0.7,3.3,0.7c4.1,0.2,7.6-2.8,7.8-6.8c0.2-3.9-3-7.3-7.1-7.4
	C9.2,16.7,8.9,16.7,8.7,16.7L8.7,16.7z M28.2,16.7c-1.3,0-2.6,0.3-3.7,0.9c1.6-3.9,4.2-7.4,7.6-10.1C33,7,33.2,5.9,32.6,5.1
	c-0.6-0.8-1.8-1-2.7-0.4c-0.1,0-0.1,0.1-0.2,0.1c-7,5.4-10.1,13-10.1,17.7c0,3.3,2.1,6.4,5.3,7.7c1.1,0.5,2.2,0.7,3.4,0.7
	c4.1,0.2,7.6-2.8,7.8-6.8s-3-7.3-7.1-7.4C28.7,16.7,28.4,16.7,28.2,16.7L28.2,16.7z"/>
</svg>
