<?xml version="1.0" encoding="utf-8"?>
<!-- Generator: Adobe Illustrator 24.2.0, SVG Export Plug-In . SVG Version: 6.00 Build 0)  -->
<svg version="1.1" id="Слой_1" xmlns="http://www.w3.org/2000/svg" xmlns:xlink="http://www.w3.org/1999/xlink" x="0px" y="0px"
	 viewBox="0 0 1000 1000" style="enable-background:new 0 0 1000 1000;" xml:space="preserve">
<path d="M55,846.7c0.7-3.2,1.4-6.4,2.2-9.5c14.4-53.9,35.3-104.5,74.7-145.5c24.3-25.2,54-40.1,88.5-46.7
	c25.6-4.9,51.5-6.4,77.4-8.2c12.4-0.9,24.7-2.7,37.2-4c7.6,21.2,21.5,39.1,35.9,56.4c27.3,32.7,55.6,64.5,83.5,96.7
	c1.3,1.5,2.3,3.1,3.5,4.7c0.5-0.3,1.1-0.6,1.6-0.9c2.7-10.7,5.5-21.4,8.2-32.1c3.7-14.5,7.5-28.9,11-43.5c0.4-1.7-0.1-4.5-1.2-5.5
	c-13.7-11.4-15.7-26.9-16.4-43.6c26,0,51.6,0,77.8,0c-0.8,16.6-2.5,32.4-16.6,43.7c-1,0.8-1.8,3.1-1.5,4.4
	c6.4,25.3,12.9,50.5,19.5,75.7c0.1,0.3,0.4,0.4,0.9,0.9c0.8-0.6,1.8-1.2,2.5-2c36.3-40.1,73.1-79.7,104.2-124.1
	c6.8-9.7,12.2-20.4,18.5-30.9c8.2,1.1,17.5,2.6,26.9,3.4c21.1,1.8,42.2,2.6,63.2,5.2c32.6,4.1,64.1,11.7,91,32.3
	c21.1,16.1,37.9,35.8,51.8,58.2c19.7,31.9,33.1,66.5,42.8,102.6c1,3.8,1.9,7.6,2.9,11.4c0,6,0,12,0,18c-0.5,1.2-1,2.4-1.4,3.6
	c-2.5,8.8-4.1,17.9-7.5,26.3c-7.7,18.8-22.8,31.2-39.6,41.5c-28.3,17.2-59.5,27.1-91.3,35.2c-37.6,9.6-75.9,16.1-114.4,19.8
	c-37.9,3.6-76,6.5-114,8c-33.9,1.3-68,0.2-102,0.3c-40,0.1-79.9,0-119.8-3.6c-52.4-4.7-104.6-11-155.8-23.5
	c-31.1-7.6-61.4-17.2-89.6-32.7c-29.4-16.1-49.9-38.4-53.3-73.3c-0.1-0.9-0.8-1.7-1.2-2.6C55,857.3,55,852,55,846.7z M602.2,51.4
	c-5.9,33.2-11.6,66.5-17.6,99.7c-1.9,10.8-11.1,17.1-20.9,15.2c-10.1-2-16-10.8-14.2-21.6c6.8-39.3,13.8-78.6,20.5-117.9
	c0.4-2.1-0.3-5-1.6-6.7c-9-11.8-21.4-18-36-18.4c-21.5-0.5-43-0.5-64.5,0c-14.9,0.3-27.4,6.5-36.4,18.6c-1.3,1.7-1.9,4.6-1.5,6.7
	c6.7,39.1,13.6,78.3,20.5,117.4c1,5.9,0.3,11.3-3.7,15.9c-4.8,5.5-10.9,7.6-18,5.7c-8.2-2.1-12.3-7.9-13.7-16
	c-4.4-25.5-8.9-51.1-13.4-76.6c-1.6-9.2-3.4-18.4-5.2-28.7C316.6,90,275.3,157.5,271.6,248.5c-3.4,0-6.7-0.1-10,0
	c-15.6,0.3-29.5,12.7-31.5,28.2c-2.7,21.1,12.3,37.7,34.3,37.7c74.1,0,148.3,0,222.4,0c83.1,0,166.3,0,249.4,0
	c19.5,0,34-14.2,34-32.9c0-18.7-14.7-33-34-33c-2.7,0-5.5,0-7.9,0c-3.8-91.4-45.3-158.6-124.8-203.7C603,47.9,602.6,49.6,602.2,51.4
	z M255.2,376.1c2.9,19.4,8,38,18.8,54.7c3.9,5.9,8.3,11.1,15,14.2c2.1,1,4.3,3.1,5.1,5.2c10.1,25.6,22.2,50.1,37.2,73.1
	c22.9,35.2,50,66.4,86.3,88.6c48.3,29.6,97.8,32.4,148.3,5.6c31.8-16.9,56.9-41.4,78.7-69.5c23.3-30,41-63.2,54.8-98.5
	c0.7-1.7,1.8-3.8,3.3-4.6c7.1-3.5,11.7-9.2,15.7-15.6c9.4-15.2,14.5-32,17.3-49.5c1.2-7.4,1.8-15,2.7-23c-162,0-322.9,0-485,0
	C254,363.4,254.3,369.8,255.2,376.1z"/>
</svg>
