<?xml version="1.0" encoding="utf-8"?>
<!-- Svg Vector Icons : http://www.onlinewebfonts.com/icon -->
<!DOCTYPE svg PUBLIC "-//W3C//DTD SVG 1.1//EN" "http://www.w3.org/Graphics/SVG/1.1/DTD/svg11.dtd">
<svg version="1.1" xmlns="http://www.w3.org/2000/svg" xmlns:xlink="http://www.w3.org/1999/xlink" x="0px" y="0px" viewBox="0 0 1000 1000" enable-background="new 0 0 1000 1000" xml:space="preserve">
<metadata> Svg Vector Icons : http://www.onlinewebfonts.com/icon </metadata>
<g><g transform="translate(0.000000,512.000000) scale(0.100000,-0.100000)"><path d="M7267.6,5008.9c-795.9-71-1499.8-585-1820.1-1329.1c-291.5-678.9-211-1488.3,207.1-2103.9c99.7-147.7,335.6-397,477.6-506.3c746.1-573.4,1783.6-604.1,2579.6-76.7c147.7,97.8,408.5,347.1,529.3,508.2c124.7,164.9,293.4,504.4,352.9,715.4c257,912.9-88.2,1868-876.5,2418.5c-270.4,189.9-677,341.4-980,366.3c-76.7,5.8-172.6,13.4-214.8,17.3C7480.4,5022.4,7365.4,5018.5,7267.6,5008.9z M8688.7,3934.9c53.7-28.8,107.4-94,109.3-134.2c0-34.5-1252.4-1871.9-1302.3-1910.2c-46-34.5-145.8-49.9-228.2-34.5c-61.4,9.6-141.9,84.4-592.6,533.2l-523.6,521.7v86.3c1.9,149.6,80.6,280,197.5,324.1c92.1,36.4,187.9-5.8,590.7-258.9c209.1-130.4,387.4-237.8,395.1-237.8c9.6,0,257,241.7,552.4,537c295.4,293.4,563.9,548.5,594.6,563.9C8548.7,3961.8,8631.2,3963.7,8688.7,3934.9z"/><path d="M1057.4,4042.3c-258.9-55.6-517.8-251.2-625.2-473.7c-117-239.7-111.2-49.9-109.3-3352.5c0-2790.5,1.9-3030.3,32.6-3147.3c82.5-316.4,345.2-575.4,665.5-659.8c99.7-24.9,540.8-28.8,3711.1-28.8c3912.5,0,3692-5.8,3910.6,105.5c136.2,67.1,312.6,239.7,381.7,370.1c122.8,230.2,118.9,163,118.9,2088.6V693.7L8986,586.3c-172.6-117-427.7-245.5-632.9-316.5l-128.5-44.1L8218.8-973l-5.7-1198.7l-46-115.1c-32.6-78.6-80.5-149.6-153.4-222.5c-72.9-72.9-143.8-120.8-222.5-153.4l-115.1-46l-2865.3-5.8c-1887.2-1.9-2901.8,1.9-2972.7,15.3c-253.2,46-456.5,203.3-542.8,420l-44.1,107.4L1245.4,101c-1.9,1277.3,1.9,2336,11.5,2416.6c32.6,258.9,157.3,439.2,383.6,550.4l109.3,53.7l1519,5.8l1520.9,3.8l7.7,44.1c5.8,23,19.2,94,30.7,157.3c32.6,172.6,90.1,358.6,164.9,533.2c38.4,86.3,72.9,168.8,78.6,182.2C5086.9,4082.6,1224.3,4078.8,1057.4,4042.3z"/><path d="M1974.2,2621.2c-55.6-26.9-122.8-76.7-147.7-111.2c-111.2-145.8-105.5-17.3-105.5-2297.7c0-2069.4,1.9-2098.2,40.3-2182.6c51.8-115.1,103.6-168.8,218.6-222.5l95.9-46h2662H7398l86.3,40.3c95.9,46,191.8,145.8,232.1,239.7c15.4,38.4,26.9,134.2,26.9,237.8c0,166.9-1.9,172.6-42.2,172.6c-63.3,1.9-207.1,71-270.4,130.4c-115.1,109.3-138.1,182.2-138.1,445c0,209,5.7,249.3,40.3,316.5c76.7,141.9,197.5,235.9,333.7,257l67.1,11.5l5.8,258.9l3.8,258.9l-301.1,1.9c-341.4,0-508.2,26.8-830.4,134.2c-970.5,322.2-1683.9,1198.7-1808.6,2219l-21.1,186h-1354h-1354L1974.2,2621.2z M3654.2,1309.3c140-74.8,237.8-176.4,308.8-326c42.2-88.2,49.9-132.3,49.9-268.5c0-209.1-40.3-293.4-234-502.5c-78.6-82.5-157.3-184.1-174.5-222.5c-23-53.7-32.6-157.3-42.2-439.2c-9.6-354.8-11.5-368.2-55.6-416.2c-99.7-105.5-249.3-105.5-349.1,0c-44.1,47.9-46,61.4-55.6,416.2C3090.4-14,3080.8,9,2869.8,227.6c-170.7,178.3-228.2,297.3-226.3,477.5c0,226.3,99.7,421.9,280,554.3c134.3,99.7,234,126.6,437.3,120.8C3514.2,1374.5,3546.9,1366.9,3654.2,1309.3z"/><path d="M1247.3-4110.6c-21.1-53.7,9.6-310.7,47.9-395.1c44.1-99.7,163-212.9,264.7-247.4c57.5-21.1,209.1-26.9,631-26.9c606,0,619.5,1.9,755.6,117c107.4,90.1,155.4,218.7,155.4,416.2v166.9h-920.6C1358.5-4080,1258.8-4083.8,1247.3-4110.6z"/><path d="M6362.3-4246.8c0-197.5,47.9-326,155.4-416.2c136.2-115.1,149.6-117,755.7-117c625.2,0,654,3.8,788.2,128.5c107.4,99.7,147.7,205.2,149.6,404.7l1.9,157.3l-924.4,5.8l-926.3,3.8V-4246.8z"/></g></g>
</svg>