<?xml version="1.0" encoding="utf-8"?>
<!-- Svg Vector Icons : http://www.onlinewebfonts.com/icon -->
<!DOCTYPE svg PUBLIC "-//W3C//DTD SVG 1.1//EN" "http://www.w3.org/Graphics/SVG/1.1/DTD/svg11.dtd">
<svg version="1.1" xmlns="http://www.w3.org/2000/svg" xmlns:xlink="http://www.w3.org/1999/xlink" x="0px" y="0px" viewBox="0 0 1000 1000" enable-background="new 0 0 1000 1000" xml:space="preserve">
<metadata> Svg Vector Icons : http://www.onlinewebfonts.com/icon </metadata>
<g><g><g><path d="M451.8,700.3c-76-7.9-144.5-26.6-203.1-72.5c-7.3-5.7-14.8-11.2-21.4-17.6c-25.7-24.7-28.3-52.9-7.9-82c17.4-24.9,46.5-31.6,76.9-17.3c5.9,2.8,11.5,6.2,16.8,9.9c109.3,75.1,259.4,77.2,369.2,3.4c10.9-8.3,22.5-15.1,36-18.6c26.2-6.7,50.6,2.9,64.7,25.8c16.1,26.2,15.8,51.7-3.9,72c-30.3,31.1-66.8,53.7-107.4,69.4c-38.3,14.9-80.3,22.3-121.9,27.3c6.3,6.8,9.2,10.2,13.2,14.1c56.4,56.7,113.1,113.2,169.3,170c19.2,19.4,23.2,43.4,12.6,65.9c-11.5,24.6-37.4,40.8-62.7,39.1c-16-1.1-28.5-9.1-39.7-20.3c-42.6-42.8-86-84.9-127.7-128.6c-12.1-12.7-18-10.3-28.7,0.7c-42.8,44.1-86.4,87.5-130.2,130.7c-19.7,19.4-43.1,22.9-65.9,11.8c-24.2-11.7-39.7-36.5-38.5-61.4c0.8-16.8,9.1-29.7,20.6-41.2c55.8-55.8,111.5-111.7,167.3-167.5C443,710,446.4,706,451.8,700.3z"/><path d="M498,506c-135.5-0.5-246.7-112.8-245.9-248.6C252.9,120.2,364.1,9.6,501,10c137.1,0.4,247.2,112.6,246.5,251.2C746.8,396.7,635,506.5,498,506z M621.2,257.8C621,190.4,567.3,136.7,500,136.7c-67.8-0.1-122,54.6-121.5,122.6c0.5,67.1,54.6,120.4,122.1,120.2C567.9,379.2,621.4,325.2,621.2,257.8z"/></g></g><g></g><g></g><g></g><g></g><g></g><g></g><g></g><g></g><g></g><g></g><g></g><g></g><g></g><g></g><g></g></g>
</svg>