<?xml version="1.0" encoding="iso-8859-1"?>
<!-- Generator: Adobe Illustrator 18.1.1, SVG Export Plug-In . SVG Version: 6.00 Build 0)  -->
<svg version="1.1" id="Capa_1" xmlns="http://www.w3.org/2000/svg" xmlns:xlink="http://www.w3.org/1999/xlink" x="0px" y="0px"
	 viewBox="0 0 17.561 17.561" style="enable-background:new 0 0 17.561 17.561;" xml:space="preserve">
<g>
	<path style="fill:#030104;" d="M16.486,0H1.076C0.481,0,0,0.481,0,1.075v15.412c0,0.593,0.481,1.074,1.076,1.074h15.41
		c0.594,0,1.075-0.481,1.075-1.074V1.075C17.561,0.482,17.08,0,16.486,0z M5.158,14.488c-1,0-1.811-0.811-1.811-1.813
		c0-1,0.811-1.811,1.811-1.811s1.813,0.811,1.813,1.811C6.971,13.678,6.158,14.488,5.158,14.488z M11.299,13.279
		c0,0.3-0.118,0.581-0.331,0.794c-0.212,0.211-0.496,0.329-0.798,0.329c-0.622,0-1.126-0.505-1.126-1.123L9.033,12.65
		c0-2.012-1.635-3.647-3.647-3.647H4.502c-0.625,0-1.134-0.509-1.134-1.137s0.509-1.138,1.134-1.138h0.512h0.372
		c3.162,0,5.758,2.476,5.907,5.638c0.003,0.022,0.007,0.039,0.007,0.06l0.003,0.11c0.003,0.038,0.005,0.075,0.005,0.114
		L11.299,13.279z M15.074,12.71c0,0.003,0,0.005,0,0.008v0.532c0,0.569-0.465,1.031-1.038,1.031s-1.038-0.462-1.038-1.031v-0.759
		c-0.117-4.143-3.483-7.484-7.639-7.557c-0.006,0-0.013,0.002-0.02,0.002h-0.96c-0.57,0-1.031-0.464-1.031-1.037
		c0-0.574,0.461-1.038,1.031-1.038H5.34c0.025,0,0.047,0.006,0.071,0.007c5.129,0.098,9.311,4.133,9.64,9.204
		c0.016,0.071,0.023,0.141,0.023,0.217C15.074,12.289,15.074,12.71,15.074,12.71z"/>
</g>
<g>
</g>
<g>
</g>
<g>
</g>
<g>
</g>
<g>
</g>
<g>
</g>
<g>
</g>
<g>
</g>
<g>
</g>
<g>
</g>
<g>
</g>
<g>
</g>
<g>
</g>
<g>
</g>
<g>
</g>
</svg>
