<?xml version="1.0" encoding="utf-8"?>
<!-- Generator: Adobe Illustrator 25.3.1, SVG Export Plug-In . SVG Version: 6.00 Build 0)  -->
<svg version="1.1" id="Слой_1" xmlns="http://www.w3.org/2000/svg" xmlns:xlink="http://www.w3.org/1999/xlink" x="0px" y="0px"
	 viewBox="0 0 1080 1080" style="enable-background:new 0 0 1080 1080;" xml:space="preserve">
<g transform="translate(0.000000,1080.000000) scale(0.100000,-0.100000)">
	<path d="M0,5400V0h5400h5400v5400v5400H5400H0V5400z M7355,8273c-58-356-82-599-97-976c-14-347-1-757,32-1052
		c22-191,86-593,100-631c5-12,6-24,4-27c-3-3,0-23,6-46l11-41h69h70v-140v-140h80h80v140v140h160h160v-420v-421l-157,3l-158,3
		l-2,140l-1,139l-72,1c-71,0-71,0-65-25c12-46,114-314,164-430l50-115l171-3c94-1,170-6,168-10c-2-5-43-76-91-160l-88-151l22-43
		c12-24,48-89,80-145c33-56,59-104,59-107c0-4-22-6-50-6c-27,0-50-2-50-4s27-50,60-106s60-104,60-106s-78-4-172-4l-173,1l-56,102
		l-55,102h-40h-39l-3-102l-3-103h-154h-155v95v95h-60c-51,0-63-4-78-22c-106-138-237-195-422-185c-120,6-205,35-276,93l-53,43
		l-90-11l-91-11v-49v-48h-155h-155v23c0,13-2,26-5,28c-9,10-260-31-295-47c-22-10-81-20-155-25c-358-24-1710-312-2670-569
		c-403-108-1303-365-1414-404l-43-16l6,43c43,293,59,949,32,1307c-65,851-288,1766-737,3019c-33,90-59,167-59,170s260,6,577,6
		c670,0,1021,17,1568,76c266,28,708,87,736,97c13,5,49,12,79,16c147,19,828,152,1085,213c194,45,577,141,670,167
		c544,151,758,216,1255,382c290,97,623,215,745,263C7346,8307,7361,8306,7355,8273z M3268,7575c-3-3-9,2-12,12c-6,14-5,15,5,6
		C3268,7586,3271,7578,3268,7575z M9115,6510c-3-5-12-10-18-10c-7,0-6,4,3,10C9119,6522,9123,6522,9115,6510z M9610,5778
		c80-32,261-32,338,0c29,12,55,22,58,22c2,0,3-42,2-92l-3-93l-60-25c-52-22-75-25-170-25c-98,0-116,3-167,27l-58,27v90
		c0,50,1,91,3,91C9554,5800,9580,5790,9610,5778z M8450,5391v-108l103-6c123-7,181-26,240-77c64-57,90-123,90-230
		c-1-147-55-232-179-281c-55-21-77-23-308-27c-201-3-250-1-257,9c-5,8-8,197-8,422v407h160h159V5391z M9250,5080v-420h-155h-155v420
		v420h155h155V5080z M9678,5340c-3-88-3-158,0-156c2,3,57,74,121,158l117,153l127,3l127,3v-421v-420h-155h-155l-2,160l-3,160
		l-100-131c-55-73-111-145-123-160l-24-29h-124h-124v420v420h161h162L9678,5340z"/>
	<path d="M7158,8079c-10-5-43-18-75-28c-81-26-384-131-408-141c-20-9-470-153-710-228c-141-44-396-118-515-150
		c-182-49-320-86-470-125c-269-71-904-208-1170-252c-80-13-170-29-200-34c-30-6-80-13-110-15c-30-3-147-18-260-35
		c-335-49-761-93-1190-122c-91-6-421-13-733-16c-519-5-568-7-564-22c3-9,50-149,106-311c404-1180,593-2027,641-2874
		c16-292,7-749-19-948c-4-32-6-60-4-62s95,23,206,56c1075,314,1928,529,2814,710c117,24,213,45,213,48s-20,13-44,23
		c-107,44-188,140-221,261c-27,101-18,250,22,337c41,89,91,142,174,183c93,46,162,59,289,54c94-4,112-8,169-37
		c156-80,241-221,241-401c0-113-46-245-104-299c-44-41-37-42,92-15c21,4,22,9,22,84v80h40c31,0,47,6,65,26c45,48,74,184,75,345
		c0,42,3,104,6,138l7,61h333h334v-306v-306l53,7c28,4,53,8,54,9c2,1-4,36-13,77c-48,227,62,442,263,510c97,34,269,34,363,1
		c181-64,275-207,275-420v-93l35,3l35,3l3,258l2,257h155h155v-140v-140h25c19,0,31,13,61,66l36,65l-75,177c-42,97-83,196-92,219
		l-17,43h-149h-149l-2,425l-3,424l23-6c20-5,22-2,18,18c-3,13-12,53-20,89c-39,173-84,474-113,760c-14,141-18,265-18,640
		c0,474,5,571,46,909c11,90,18,165,17,167C7176,8087,7167,8084,7158,8079z M3920,6354v-285l43,3l42,3l-4,283l-3,282h166h166l2-282
		l3-283l35,1h35l3,282l2,282l163-2l162-3l3-422l2-423h-255c-197,0-255-3-256-12c0-10-2-10-6,0c-4,9-76,12-314,12h-309v420v419l83,4
		c45,1,117,4,160,5l77,2V6354z M3403,6218c81-227,147-416,147-420c0-5-71-8-158-8h-158l-15,48l-14,47l-122,3l-122,3l-14-48l-14-48
		l-163-3c-152-2-162-1-155,15c5,13,252,704,290,811c3,9,48,12,177,12h173L3403,6218z M4460,5421c0-47-3-103-6-123l-7-38h-168h-169
		v-35v-34l148-3l147-3l3-102l3-102l-148-3l-148-3v-35v-35l173-3l172-2v-120v-120h-330h-330v420v420h279c154,0,282,3,285,8
		c2,4,25,6,50,4l46-4V5421z M6320,5264c3-134,2-244-2-244c-5,0-8-81-8-180v-181l-155,3l-155,3l-4,110c-2,61-4,185-5,278l-1,167h-29
		c-29,0-29-1-36-72c-14-148-44-260-103-382c-3-5,2-5,9-1c8,5,11,5,7,1c-3-4-10-8-15-9c-4,0-24-16-43-34c-19-19-53-44-75-55
		c-44-24-47-24-405-14l-195,6l-14,45l-15,45h-118h-118l-11-45l-11-45h-165h-164l7,23c3,12,31,89,60,172c30,82,54,154,54,158
		c0,9,105,309,119,342c5,11,19,50,32,88l23,67l175-2l175-3l29-80c16-44,49-136,73-205s48-134,53-145c6-11,31-81,56-155
		c26-74,57-162,68-195l22-60l3,130c3,143,6,162,25,147c30-24,91,13,117,72c26,57,38,144,46,333l7,163l336,2c185,2,338,2,341,0
		S6317,5398,6320,5264z M6740,5402v-108l108-12c167-20,241-61,294-162c20-39,23-59,23-150c0-127-21-181-93-235c-79-61-117-68-399-73
		l-253-4v216c0,145-3,216-11,216c-5,0-7,5-4,11c4,5,7,96,7,202s2,195,5,200c2,4,76,7,164,7h159V5402z M3612,5213l3-288l53-3l52-3
		v-205v-205l-142,3l-141,3l2,73l2,72h-215h-216v-75v-75h-140h-140v205v205h49h48l27,59c55,123,83,251,88,406c1,44,4,88,6,98
		c4,16,28,17,333,17h329L3612,5213z M4858,4585c-3-3-9,2-12,12c-6,14-5,15,5,6C4858,4596,4861,4588,4858,4585z M3325,4375
		c135-35,216-98,270-208c68-140,68-295,0-434c-72-146-213-223-410-223c-229,0-387,114-440,317c-64,247,65,485,298,548
		C3113,4394,3252,4394,3325,4375z M4410,4235v-135l-87-1c-49-1-97-2-108-3c-19-1-20-9-23-283l-2-283h-155h-155l-2,283l-3,282l-107,3
		l-108,3v134v135h375h375V4235z M1750.7,6670.5H2260c84.9,0,150-21,195.5-63.1c45.4-42,68.2-94.1,68.2-156.2
		c0-52.1-16.2-96.7-48.6-133.9c-21.6-24.8-53.3-44.4-94.9-58.9c63.3-15.2,109.8-41.3,139.6-78.4c29.8-37,44.7-83.6,44.7-139.6
		c0-45.6-10.6-86.7-31.8-123.1c-21.2-36.4-50.3-65.3-87.1-86.5c-22.8-13.2-57.3-22.8-103.3-28.8c-61.3-8-101.9-12-121.9-12h-469.7
		V6670.5z M2025.2,6325.1h118.3c42.4,0,72,7.3,88.6,21.9c16.6,14.6,24.9,35.7,24.9,63.4c0,25.6-8.3,45.6-24.9,60.1
		c-16.6,14.4-45.6,21.6-86.8,21.6h-120.1V6325.1z M2025.2,5979.2h138.7c46.8,0,79.9,8.3,99.1,24.9c19.2,16.6,28.8,38.9,28.8,67
		c0,26-9.5,46.9-28.5,62.8c-19,15.8-52.4,23.7-100,23.7h-138.1V5979.2z M2592.7,5496.9v-880.5h-255.8v483.5l-329.4-483.5h-256.8
		v880.5h256.5v-487.1l331.1,487.1H2592.7z M2592.7,3509.4h-271.5v664.2h-299.1v-664.2h-271.5v880.5h842V3509.4z"/>
	<path d="M3075,6315c-4-16-17-68-30-115s-21-88-19-92c9-14,114-9,114,5c-1,6-14,62-30,122C3086,6328,3081,6340,3075,6315z"/>
	<path d="M4950,5159c0-13-11-59-24-101l-24-78h54c30,0,54,1,54,3c0,1-11,44-23,95C4962,5173,4950,5201,4950,5159z"/>
	<path d="M6740,4976v-56h48c55,0,72,12,72,51c0,35-18,49-74,55l-46,6V4976z"/>
	<path d="M3211,5150c-6-49-20-118-31-152c-11-35-20-66-20-70c0-5,32-8,70-8h70v160v160h-39h-38L3211,5150z"/>
	<path d="M3119,4085c-80-43-78-229,2-270c15-8,49-15,75-15c86,0,137,83,119,192c-5,28-18,53-40,75c-28,28-40,33-81,33
		C3167,4099,3133,4093,3119,4085z"/>
	<path d="M4795,4067c-22-22-35-47-40-75c-11-67,3-122,40-159c28-28,40-33,79-33c93,0,138,49,139,150s-44,150-136,150
		C4835,4100,4823,4095,4795,4067z"/>
	<path d="M5826,4088c-3-7-7-50-10-95c-6-73-40-228-61-277c-9-19-8-19,113,1l32,5l-2,187l-3,186l-33,3C5842,4100,5828,4096,5826,4088
		z"/>
	<path d="M6682,4087c-34-16-62-78-62-137c0-55,28-123,55-134c9-3,48-3,87,1c102,9,127,45,116,165c-5,43-11,57-42,85
		c-30,28-43,33-83,32C6726,4099,6695,4094,6682,4087z"/>
	<path d="M8457,5023c-4-3-7-28-7-55v-48h50c42,0,52,4,66,25c15,23,15,27,1,49C8549,5021,8475,5041,8457,5023z"/>
</g>
</svg>
